<svg viewBox="0 0 173 32" xmlns="http://www.w3.org/2000/svg">
  <g fill-rule="nonzero" fill="none">
    <g fill="#1C1B1A">
      <path d="M173 10.008h-5.478v16.448h-5.951V10.008h-5.479v-5.44H173zM154.218 26.456h-4.637l-10.332-11.76h-.064v11.76h-5.943V4.568h4.63l10.3 11.76h.063V4.568h5.951zM130.55 21.016v5.44h-14.416V4.568h13.968v5.44h-8.009V12.6h7.048v5.16h-7.048v3.256zM113.956 15.512c0 6.816-4.574 10.944-11.934 10.944h-7.513V4.568h7.48c7.458 0 11.967 4.128 11.967 10.944zm-13.464-5.6v11.232h1.602c3.38 0 5.607-1.88 5.607-5.6 0-3.72-2.26-5.6-5.607-5.6l-1.602-.032zM84.898 22.36h-7.48l-1.33 4.096h-6.592l8.482-21.888h6.36l8.481 21.888h-6.575l-1.346-4.096zm-1.506-4.688l-2.218-6.848-2.25 6.848h4.468zM48.384 15.512c0-7.256 5.254-11.416 12.014-11.416a14.028 14.028 0 018.105 2.4l-3.131 5.096a7.943 7.943 0 00-4.806-1.656c-3.204 0-5.983 1.944-5.983 5.6 0 3.656 2.755 5.6 5.983 5.6a7.943 7.943 0 004.806-1.656l3.131 5.096a14.028 14.028 0 01-8.105 2.4c-6.736-.048-12.014-4.208-12.014-11.464z"/>
    </g>
    <path d="M1.859 28.471c.36 1.022 1.28 1.738 2.485 2.041.794.2 3.603.763 9.126 1.04l3.563-1.67L38.85 6.872l.414-1.355a18.212 18.212 0 00-.557-1.994c-.361-1.021-1.281-1.737-2.485-2.04-.794-.2-3.6-.76-9.12-1.036l-4.08 2.657L4.259 22.146l-2.952 4.335c.22.966.424 1.63.552 1.99" fill="#00F"/>
    <path d="M20.283.287c-10.133 0-14.868.925-15.939 1.195C3.14 1.785 2.22 2.5 1.86 3.522 1.457 4.658.29 8.638.29 15.838c0 2.025.094 3.957.236 5.5l1.63.173 18.13-18.487L21.395.291c-.364-.003-.733-.004-1.112-.004" fill="red"/>
    <path d="M.526 21.338c.202 2.202.503 3.92.781 5.143L27.102.446a131.5 131.5 0 00-5.707-.155L.526 21.338z" fill="#F0F"/>
    <path d="M20.289 31.712c10.133 0 14.868-.926 15.939-1.195 1.204-.304 2.124-1.02 2.485-2.04.402-1.136 1.569-5.117 1.57-12.316a62.07 62.07 0 00-.237-5.5l-1.63-.173-18.13 18.487-1.109 2.733c.364.002.733.004 1.112.004" fill="#0F0"/>
    <path d="M40.046 10.661c-.202-2.202-.503-3.92-.781-5.143L13.47 31.553c1.653.083 3.549.14 5.707.155l20.87-21.047z" fill="#0FF"/>
  </g>
</svg>